<svg class="icon" style="vertical-align: middle; fill: #a41c23; overflow: hidden;" viewBox="0 0 1024 1024" version="1.1" xmlns="http://www.w3.org/2000/svg" p-id="2196"><path d="M628.643092 80.858586c0 63.967894 0 127.938857 0 191.906751-27.882024-2.300392-64.967664 4.617158-87.055728-3.489474 0-11.628852 0-23.261797 0-34.891671 13.929244 0 27.856441 0 41.785685 0 0-54.665017 0-109.327988 0-163.993005-45.586245-9.231245-100.213399-7.720845-146.252968 0 0 54.665017 0 109.327988 0 163.993005 18.057261 1.680269 43.215244-3.75758 55.716976 3.489474 0 11.629875 0 23.261797 0 34.891671-32.503275 0-65.002456 0-97.502661 0-0.346901-64.782446 1.779529-132.048455-3.482311-191.906751C212.805222 143.473669 72.324724 269.992177 64.522014 496.075309 56.325331 733.545792 205.391369 880.165104 391.851061 942.693206c7.66047-58.614979-1.554402-134.146233 6.963599-191.905728 30.438243 2.068102 69.295226-4.298909 94.021374 3.490497-2.236947 14.040784 4.526083 37.103036-3.483334 45.359071-17.411555 0-34.822087 0-52.233642 0 0 51.175543 0 102.349039 0 153.524582 46.039569 7.721869 100.667747 9.231245 146.252968 0 0-51.176566 0-102.350063 0-153.524582-12.866029-2.224668-34.68701 4.51892-41.785685-3.489474 2.236947-14.040784-4.52813-37.105083 3.481288-45.360094 26.725688 2.300392 62.642712-4.613064 83.574441 3.490497 0 62.805418 0 125.610836 0 188.41523 185.7751-60.272735 331.400782-199.626573 330.811358-432.660001C958.873212 279.552927 813.346791 140.846842 628.643092 80.858586zM628.643092 318.125431c0 15.118326 0 30.241768 0 45.360094-29.015847 0-58.036811 0-87.055728 0 0-15.118326 0-30.240745 0-45.360094C570.606281 318.125431 599.627245 318.125431 628.643092 318.125431zM478.906789 175.068248c0-20.935822 0-41.87062 0-62.806441 15.049764 1.892093 48.873104-8.263198 69.645197 0 0 20.934798 0 41.87062 0 62.806441C525.337261 175.068248 502.122537 175.068248 478.906789 175.068248zM395.334395 318.125431c32.500205 0 65.00041 0 97.502661 0 0 15.118326 0 30.241768 0 45.360094-32.503275 0-65.002456 0-97.502661 0C395.334395 348.367199 395.334395 333.24478 395.334395 318.125431zM353.546663 865.931938C229.544465 806.339702 136.159588 701.592033 123.719254 551.902802c-15.072277-181.357488 84.365456-327.772138 226.345098-394.280902 8.121981 90.723258 1.163499 196.558701 3.481288 293.094338-44.107567 0-88.217181 0-132.324748 0 8.828063-43.49256 23.192212-81.437777 48.751331-108.165512 0 24.424272 0 48.848545 0 73.272817 9.28548 0 18.573008 0 27.858488 0 8.117888-53.510728 1.166569-122.115222 3.481288-181.439352-65.293075 48.563042-126.628002 131.315768-135.807059 247.734244 24.40483 8.113795 63.819514 1.186012 94.02035 3.489474 0 17.445324 0 34.892695 0 52.338019-31.339776 0-62.679551 0-94.02035 0 9.344832 120.901581 65.757656 194.637955 135.807059 254.712169 0-61.643965 0-123.284861 0-184.92985-9.28548 0-18.571984 0-27.857465 0-8.079002 17.495466-1.197268 49.978275-3.482311 73.27384-25.781176-26.502607-40.085974-64.510246-48.751331-108.164488 44.10859 0 88.217181 0 132.324748 0C353.546663 670.534689 353.546663 768.234849 353.546663 865.931938zM311.759955 537.946952c0-17.446347 0-34.892695 0-52.338019 27.857465 0 55.714929 0 83.573417 0 0-25.585725 0-51.176566 0-76.763314 32.500205 0 65.00041 0 97.502661 0-1.1328 12.822027 2.969635 30.891568-3.483334 38.381146-14.839986-1.413186-35.873022 3.381004-45.26902-3.489474-7.937786 37.403888-1.297552 89.418542-3.481288 132.591831 11.444657 7.141654 35.262108 1.882883 52.233642 3.488451 0 11.628852 0 23.260773 0 34.890648-32.503275 0-65.002456 0-97.502661 0 0-24.423249 0-48.847521 0-73.271794C374.402667 533.331841 338.484619 540.245298 311.759955 537.946952zM492.837056 705.428408c-32.503275 0-65.002456 0-97.502661 0 0-15.117302 0-30.239721 0-45.360094 31.338752 0 62.679551 0 94.019327 0C496.206804 669.483754 491.426941 690.557722 492.837056 705.428408zM548.551986 844.99714c0 22.097274 0 44.195571 0 66.293869-23.214724 0-46.429449 0-69.645197 0 0-22.098297 0-44.196595 0-66.293869C502.122537 844.99714 525.337261 844.99714 548.551986 844.99714zM478.906789 544.924877c0-22.098297 0-44.198641 0-66.295915 23.215748 0 46.431495 0 69.645197 0 0 22.096251 0 44.197618 0 66.295915C525.337261 544.924877 502.122537 544.924877 478.906789 544.924877zM628.643092 705.428408c-29.015847 0-58.036811 0-87.055728 0 0-15.117302 0-30.239721 0-45.360094 29.018917 0 58.039881 0 87.055728 0C628.643092 675.188686 628.643092 690.310082 628.643092 705.428408zM628.643092 614.707197c-29.015847 0-58.036811 0-87.055728 0 0-11.628852 0-23.260773 0-34.890648 15.089673 0 30.178323 0 45.26902 0 0-44.197618 0-88.393189 0-132.590807-14.219863-3.665483-24.570605 1.721201-45.26902 0 0-12.794397 0-25.585725 0-38.381146 29.018917 0 58.039881 0 87.055728 0 0 24.424272 0 48.849568 0 73.272817 20.929682 8.103562 56.846706 1.190105 83.573417 3.489474 0 17.445324 0 34.892695 0 52.338019-27.857465 0-55.715953 0-83.573417 0C628.643092 563.532677 628.643092 589.121472 628.643092 614.707197zM670.429801 865.931938c0-97.698113 0-195.397249 0-293.093315 44.10859 0 88.214111 0 132.325771 0-7.42818 43.728944-26.627451 75.66633-45.26902 108.164488-8.077979-17.493419-1.197268-49.976228-3.483334-73.27384-9.28548 0-18.569938 0-27.857465 0-8.117888 53.511751-1.166569 122.116245-3.481288 181.440375 65.902966-47.949059 125.553531-132.391263 135.807059-247.733221-24.405853-8.114818-63.820538-1.187035-94.02035-3.489474 0-17.446347 0-34.892695 0-52.338019 31.340799 0 62.679551 0 94.02035 0-9.905604-120.340809-66.364477-194.030112-135.807059-254.712169 0 61.643965 0 123.284861 0 184.927803 9.287527 0 18.570961 0 27.858488 0 8.076956-17.493419 1.197268-49.976228 3.480264-73.272817 23.938202 28.353768 40.073694 64.522526 48.753377 108.165512-44.110637 0-88.216157 0-132.325771 0 0-97.698113 0-195.396225 0-293.094338 134.025483 55.081503 241.779625 205.16573 229.828432 383.814526C889.603569 700.671057 794.523073 806.250674 670.429801 865.931938z" p-id="2197"></path></svg>